<svg xmlns="http://www.w3.org/2000/svg" viewBox="0 0 550 125"><defs><style>.cls-3,.cls-6,.cls-7{fill:none;stroke-miterlimit:10}.cls-3{stroke:#1060e1}.cls-4{fill:#fff}.cls-5{fill:#ffb935}.cls-6{stroke:#f48024}.cls-7{stroke:#bbc0c4;stroke-dasharray:5}</style></defs><g opacity=".5"><path fill="#cceaff" d="M232.73 73L217.5 92.89V73h-16V26h64v47H232.73z"/><path class="cls-3" d="M205 47V20.5h14.5M255.5 66.5h-18.51L221 86.06V66.5h-16V58M231.5 20.5H270v46h-6.5"/><path class="cls-4" d="M222.5 40.79v7.3l8.16 7.29 15.84-14.21V33.3l-15.84 14.31-8.16-6.82z"/><path class="cls-5" d="M374.36 76l-9.29 11.42-.26-11.42h-5.31V49h45v27h-30.14z"/><path class="cls-6" d="M379.5 46.5H402V55M402 62v11.5H372.02L363 84.92V73.5h-6v-27h11.5"/><path class="cls-4" d="M377.5 59h5v5h-5zM367.5 59h5v5h-5zM387.5 59h5v5h-5z"/><path class="cls-5" d="M180.25 67l5.16 6.77.14-6.77h2.95V51h-25v16h16.75z"/><path class="cls-6" d="M170.5 65.5h10.73l5.77 6.72V65.5h4V59M170.5 49.5H165V65M191 53v-3.5h-15.5"/><path class="cls-4" transform="rotate(-180 177 58.5)" d="M175.5 57h3v3h-3z"/><path class="cls-4" transform="rotate(-180 183 58.5)" d="M181.5 57h3v3h-3z"/><path class="cls-4" transform="rotate(-180 171 58.5)" d="M169.5 57h3v3h-3z"/><path class="cls-5" d="M486.95 77l15.55 19.89V77h16V30h-65v47H486.95z"/><path class="cls-6" d="M515 51V24.5h-14.5M464.5 70.5h18.51L499 90.06V70.5h16V62M488.5 24.5H450v46h6.5"/><path class="cls-4" d="M470.5 44.71V52l8.16 7.3 15.84-14.21v-7.87l-15.84 14.3-8.16-6.81z"/><path class="cls-3" d="M533.5 34.5h-2.14L527 40.34V34.5h-3v-12h4.5M545 30v5.5h-7.5M533.5 22.5H545V26M534 28.5h2v2h-2z"/><path class="cls-3" d="M529 28.5h2v2h-2zM539 28.5h2v2h-2zM280 30V16.5h7.5M305.5 39.5H296l-8 10v-10h-8V35M293.5 15.5H313v24h-3.5"/><path class="cls-3" d="M289 26.52v3.65l4.08 3.65 7.92-7.11v-3.93l-7.92 7.15-4.08-3.41z"/><path class="cls-6" d="M124.5 27.5h1.41l3.09 4.23V27.5h2v-10h-2.5M115 23v4.5h6.5M124.5 17.5H115V21"/><path class="cls-6" transform="rotate(-180 123 22.5)" d="M122 21.5h2v2h-2z"/><path class="cls-6" transform="rotate(-180 127 22.5)" d="M126 21.5h2v2h-2z"/><path class="cls-6" transform="rotate(-180 119 22.5)" d="M118 21.5h2v2h-2z"/><path class="cls-7" d="M188.5 78.19s4.69 18.91 27.5 16.28M131 32.67s21.64-2 33 15M271.12 69.19c23.92 31.24 55.21 35.18 90.64 19.3M402 43.5c.68-6.28 19.53-30.13 45.26-21M503.45 98.26c5.25.1 37.8-10.84 23.09-54.76M272.34 66.5s10.51 0 15.16-13.88"/><path class="cls-7" d="M97.22 79.67c14.33-2.39 42.51-3.18 55.87 12.65s58.91 20.93 64.49 3"/></g><path class="cls-3" d="M59.15 84.6v-1.04M71.6 84.81v3.73M53.39 82.51l-3.96-.54 2.96-21.6 27.37 3.75-2.96 21.6-20.05-2.75"/><path class="cls-3" d="M50.22 76.21l-2.31-.32a2 2 0 01-1.73-2.28l.63-4.61a2 2 0 012.3-1.74l2.3.31zM79.88 80.27L77.59 80l1.18-8.64 2.32.32a2 2 0 011.73 2.27l-.64 4.62a2 2 0 01-2.3 1.7zM66.6 79.11l-.2 1.44M69.48 79.5l-.2 1.44M63.72 78.71l-.2 1.44M60.84 78.32l-.2 1.44M57.96 77.93l-.2 1.44"/><ellipse class="cls-3" cx="66.45" cy="70.5" rx="2.87" ry="2.94" transform="rotate(-82.2 66.45 70.504)"/><ellipse class="cls-3" cx="56.76" cy="69.18" rx="2.87" ry="2.94" transform="rotate(-82.2 56.758 69.175)"/><path class="cls-3" d="M55.42 105.96v7.46M72.84 105.96v7.46M76.57 96.01v1.24M66.62 96.01v1.24M54.18 95.38h7.47v4.98h-7.47z"/><path class="cls-3" d="M81.55 100.98v4.36H46.71V87.92h5.28M57.43 79.39l-1.98 3"/><path class="cls-3" d="M54.31 90.61c-2.34-1.55-3.17-4.43-1.85-6.43l1.8-2.73 8.49 5.61L61 89.78c-1.37 2.01-4.34 2.38-6.69.83zM62.27 87.92h19.28v9.33"/><path class="cls-3" d="M88.32 96.44l1.28-4.17a4.4 4.4 0 00-4.45-4.35h-5.47M79.29 104.84l2.68-3.44M82.72 107.53l2.69-3.44M88.32 96.83c2.22 1.73 2.81 4.67 1.33 6.56l-2 2.57-8-6.27 2-2.57c1.47-1.89 4.46-2.02 6.67-.29zM55.3 91.15a6.72 6.72 0 01-1.74.35H46.5"/><path class="cls-5" d="M40.82 46.24l7.96 10 .23-10h4.55V22.6H14.98v23.64h25.84z"/><path class="cls-6" d="M28.67 43.13h14.69l8.33 10.53V43.13h6.22V33.8M26.18 19.49H18.1v24.26M56.67 25.09v-5.6H33.65"/><path class="cls-4" d="M34.17 33.8a5.9 5.9 0 01.34-2.23 4.5 4.5 0 011.24-1.64A6.41 6.41 0 0037 28.62a2.06 2.06 0 00.3-1.07c0-1.12-.52-1.69-1.56-1.69a1.56 1.56 0 00-1.18.46 1.74 1.74 0 00-.46 1.25h-2.9a3.84 3.84 0 011.23-3 4.82 4.82 0 013.31-1.08 4.84 4.84 0 013.29 1 3.64 3.64 0 011.17 2.89 3.57 3.57 0 01-.43 1.62 6.57 6.57 0 01-1.33 1.68l-.81.77a2.78 2.78 0 00-.87 1.71v.61zM34 36.85a1.34 1.34 0 01.43-1 1.64 1.64 0 012.17 0 1.34 1.34 0 01.43 1 1.32 1.32 0 01-.42 1 1.7 1.7 0 01-2.19 0 1.32 1.32 0 01-.42-1z"/><path class="cls-3" d="M79.06 124H66.62v-4.21a6.45 6.45 0 015-6.42 6.29 6.29 0 017.47 6.33zM75.33 122.13v1.25M70.35 122.13v1.25M61.64 124H49.2v-4.21a6.47 6.47 0 015-6.42 6.29 6.29 0 017.47 6.33zM57.91 122.13v1.25M52.93 122.13v1.25"/></svg>
