<svg width="18" height="18" viewBox="0 0 18 18" fill="none" xmlns="http://www.w3.org/2000/svg">
<path d="M18 16.5L12.86 11.32H12.51C13.6104 9.9164 14.1335 8.14567 13.9726 6.3694C13.8116 4.59313 12.9787 2.94529 11.6439 1.76236C10.309 0.579422 8.57303 -0.0493823 6.79029 0.00433881C5.00755 0.0580599 3.31255 0.790254 2.05138 2.05142C0.790224 3.31258 0.0580294 5.00758 0.00430829 6.79032C-0.0494129 8.57306 0.579391 10.3091 1.76233 11.6439C2.94526 12.9787 4.5931 13.8116 6.36937 13.9726C8.14564 14.1336 9.91637 13.6104 11.32 12.51V12.86L16.5 18L18 16.5ZM12 7.00002C12 8.3261 11.4732 9.59787 10.5355 10.5356C9.59784 11.4732 8.32607 12 6.99999 12C5.67391 12 4.40214 11.4732 3.46445 10.5356C2.52677 9.59787 1.99999 8.3261 1.99999 7.00002C1.99999 5.67394 2.52677 4.40217 3.46445 3.46448C4.40214 2.5268 5.67391 2.00002 6.99999 2.00002C8.32607 2.00002 9.59784 2.5268 10.5355 3.46448C11.4732 4.40217 12 5.67394 12 7.00002V7.00002Z" fill="black"/>
</svg>
