<svg width="16" height="16" viewBox="0 0 16 16" fill="none" xmlns="http://www.w3.org/2000/svg">
<path d="M8 0C5.87827 0 3.84344 0.842855 2.34315 2.34315C0.842855 3.84344 0 5.87827 0 8C0 10.1217 0.842855 12.1566 2.34315 13.6569C3.84344 15.1571 5.87827 16 8 16C10.1217 16 12.1566 15.1571 13.6569 13.6569C15.1571 12.1566 16 10.1217 16 8C16 5.87827 15.1571 3.84344 13.6569 2.34315C12.1566 0.842855 10.1217 0 8 0V0ZM7 14.32C6.13432 14.1819 5.30624 13.8674 4.56711 13.3961C3.82798 12.9248 3.19356 12.3066 2.70319 11.58C2.21282 10.8533 1.87696 10.0337 1.71643 9.17186C1.55591 8.31006 1.57414 7.42447 1.77 6.57L6 10.68V11.48C6 12.36 6.12 12.8 7 12.8V14.32ZM12.72 12.32C12.52 11.66 11.72 11 11 11H10V9C10 8.56 9.44 8 9 8H5V6H6C6.44 6 7 5.44 7 5V4H9C9.88 4 10.4 3.28 10.4 2.4V2.07C11.3551 2.45825 12.2023 3.0715 12.8694 3.85755C13.5365 4.6436 14.0039 5.57919 14.2317 6.5847C14.4595 7.5902 14.441 8.63586 14.1778 9.63269C13.9146 10.6295 13.4145 11.548 12.72 12.31V12.32V12.32Z" fill="black"/>
</svg>
